# xmcd CD database file
#
# Track frame offsets:
#	150
#	21618
#	36123
#	74191
#	90456
#	108887
#	149026
#	176556
#	194574
#
# Disc length: 2894 seconds
#
# Revision: 6
# Processed by: cddbd v1.5.2PL0 Copyright (c) Steve Scherf et al.
# Submitted via: CDex 1.70beta3
#
DISCID=8a0b4c09
DTITLE=The Radha Krsna Temple - The Radha Krsna Temple
DYEAR=1971
DGENRE=New Age
TTITLE0=Govinda
TTITLE1=Sri Guruvastak
TTITLE2=Bhaja Bhakata - Arotrika
TTITLE3=Hare Krsna Mantra
TTITLE4=Sri Isopanisad
TTITLE5=Bhaja Hure Mana
TTITLE6=Govinda Jai Jai
TTITLE7=Prayer To The Spiritual Masters
TTITLE8=Namaste Saraswati Devi
EXTD=YEAR: 1971
EXTT0=
EXTT1=
EXTT2=
EXTT3=
EXTT4=
EXTT5=
EXTT6=
EXTT7=
EXTT8=
PLAYORDER=
